<svg width="50" height="50" viewBox="0 0 50 50" fill="none" xmlns="http://www.w3.org/2000/svg">
<path fill-rule="evenodd" clip-rule="evenodd" d="M42 25.4024C42 24.1468 41.8873 22.9394 41.6781 21.7803H25V28.6302H34.5303C34.1198 30.8437 32.8722 32.7192 30.9967 33.9749V38.4181H36.7197C40.0682 35.3352 42 30.7954 42 25.4024Z" fill="#4285F4"/>
<path fill-rule="evenodd" clip-rule="evenodd" d="M25.0001 42.7084C29.7814 42.7084 33.7899 41.1227 36.7198 38.4181L30.9968 33.975C29.4111 35.0375 27.3827 35.6653 25.0001 35.6653C20.3879 35.6653 16.484 32.5502 15.0915 28.3646H9.17529V32.9527C12.0891 38.7401 18.0778 42.7084 25.0001 42.7084Z" fill="#34A853"/>
<path fill-rule="evenodd" clip-rule="evenodd" d="M15.0915 28.3646C14.7373 27.3021 14.5361 26.1672 14.5361 25C14.5361 23.8329 14.7373 22.6979 15.0915 21.6354V17.0474H9.17527C7.97593 19.438 7.29175 22.1425 7.29175 25C7.29175 27.8575 7.97593 30.5621 9.17527 32.9527L15.0915 28.3646Z" fill="#FBBC05"/>
<path fill-rule="evenodd" clip-rule="evenodd" d="M25.0001 14.3348C27.6 14.3348 29.9343 15.2283 31.7696 16.9831L36.8486 11.904C33.7819 9.04649 29.7733 7.29175 25.0001 7.29175C18.0778 7.29175 12.0891 11.26 9.17529 17.0474L15.0915 21.6355C16.484 17.4499 20.3879 14.3348 25.0001 14.3348Z" fill="#EA4335"/>
</svg>
