<svg width="80" height="80" viewBox="0 0 80 80" fill="none" xmlns="http://www.w3.org/2000/svg">
<path d="M35.2812 77.8229L34.8906 77.4021L7.51562 47.6362C2.71875 42.4221 0 35.1041 0 27.4385V26.8348C0 13.9551 7.8125 2.90494 18.625 0.490001C24.7812 -0.900418 31.0781 0.764425 36.0938 4.89909C37.5 6.06997 38.8125 7.4238 40 8.97887C40.6562 8.10071 41.3594 7.29573 42.1094 6.54564C42.6875 5.9602 43.2812 5.41135 43.9062 4.89909C48.9219 0.764425 55.2187 -0.900418 61.375 0.471706C72.1875 2.88664 80 13.9551 80 26.8348V27.4385C80 35.1041 77.2812 42.4221 72.4844 47.6362L45.1094 77.4021L44.7188 77.8229C43.4375 79.2133 41.75 80 40 80C38.25 80 36.5625 79.2316 35.2812 77.8229ZM37.3594 18.6935C37.2969 18.6386 37.25 18.5654 37.2031 18.4923L34.4219 14.8333L34.4062 14.815C30.7969 10.0766 25.3438 7.91776 20.0312 9.10694C12.75 10.7352 7.5 18.163 7.5 26.8348V27.4385C7.5 32.6526 9.35938 37.6471 12.625 41.1963L40 70.9623L67.375 41.1963C70.6406 37.6471 72.5 32.6526 72.5 27.4385V26.8348C72.5 18.1812 67.25 10.7352 59.9844 9.10694C54.6719 7.91776 49.2031 10.0949 45.6094 14.815C45.6094 14.815 45.6094 14.815 45.5938 14.8333C45.5781 14.8516 45.5938 14.8333 45.5781 14.8516L42.7969 18.5106C42.75 18.5837 42.6875 18.6386 42.6406 18.7118C41.9375 19.5351 40.9844 19.9925 40 19.9925C39.0156 19.9925 38.0625 19.5351 37.3594 18.7118V18.6935Z" fill="#AB2D17"/>
</svg>
